<svg width="56" height="56" viewBox="0 0 56 56" fill="none" xmlns="http://www.w3.org/2000/svg">
<path d="M50.3996 47.6001H5.59961V50.4001H50.3996V47.6001Z" fill="#3F87F5"/>
<path d="M50.3996 28.0001H47.5996C47.5996 17.1921 38.8076 8.4001 27.9996 8.4001C17.1916 8.4001 8.39961 17.1921 8.39961 28.0001H5.59961C5.59961 15.6493 15.6488 5.6001 27.9996 5.6001C40.3504 5.6001 50.3996 15.6493 50.3996 28.0001Z" fill="#3F87F5"/>
<path d="M50.3996 26.6001H5.59961V29.4001H50.3996V26.6001Z" fill="#3F87F5"/>
<path d="M28 42C20.2804 42 14 35.7196 14 28H16.8C16.8 34.1754 21.8246 39.2 28 39.2C34.1754 39.2 39.2 34.1754 39.2 28H42C42 35.7196 35.7196 42 28 42Z" fill="#3F87F5"/>
<path d="M27.9997 35.0001C24.9113 35.0001 22.3997 32.4885 22.3997 29.4001H25.1997C25.1997 30.9443 26.4555 32.2001 27.9997 32.2001C29.5439 32.2001 30.7997 30.9443 30.7997 29.4001H33.5997C33.5997 32.4885 31.0881 35.0001 27.9997 35.0001Z" fill="#3F87F5"/>
<path d="M15.2707 22.1551L12.7283 20.9861C14.7863 16.5047 18.6839 13.1685 23.4201 11.8315L24.1803 14.5265C20.2337 15.6395 16.9871 18.4199 15.2707 22.1551Z" fill="#3F87F5"/>
<path d="M43.2655 35.1804L39.6279 33.0808L38.2282 35.5059L41.8658 37.6055L43.2655 35.1804Z" fill="#3F87F5"/>
<path d="M37.6317 41.8589L35.5312 38.2217L33.1064 39.622L35.2069 43.2592L37.6317 41.8589Z" fill="#3F87F5"/>
<path d="M29.3996 40.6001H26.5996V44.8001H29.3996V40.6001Z" fill="#3F87F5"/>
<path d="M22.929 39.6053L20.5039 38.2056L18.4043 41.8432L20.8294 43.2429L22.929 39.6053Z" fill="#3F87F5"/>
<path d="M17.7747 35.5244L16.375 33.0994L12.7374 35.1989L14.1371 37.624L17.7747 35.5244Z" fill="#3F87F5"/>
<path d="M44.7996 26.6001H40.5996V29.4001H44.7996V26.6001Z" fill="#3F87F5"/>
<path d="M15.3992 26.6001H11.1992V29.4001H15.3992V26.6001Z" fill="#3F87F5"/>
</svg>
