<svg width="40" height="40" viewBox="0 0 40 40" fill="none" xmlns="http://www.w3.org/2000/svg">
<path d="M36.361 35.999H4L6.33301 21.999H10.181V23.999H8.028L6.36101 33.999H34L32.333 23.999H30.181V21.999H34.028L36.361 35.999Z" fill="#3F87F5"/>
<path d="M20.1807 17.999C17.9747 17.999 16.1807 16.204 16.1807 13.999C16.1807 11.793 17.9747 9.99899 20.1807 9.99899C22.3867 9.99899 24.1807 11.793 24.1807 13.999C24.1807 16.204 22.3857 17.999 20.1807 17.999ZM20.1807 11.999C19.0777 11.999 18.1807 12.895 18.1807 13.999C18.1807 15.102 19.0777 15.999 20.1807 15.999C21.2837 15.999 22.1807 15.102 22.1807 13.999C22.1807 12.896 21.2837 11.999 20.1807 11.999Z" fill="#3F87F5"/>
<path d="M20.1797 31.814L11.3947 18.501C10.5877 17.09 10.1797 15.553 10.1797 14C10.1797 8.485 14.6657 4 20.1797 4C25.6937 4 30.1797 8.485 30.1797 14C30.1797 15.574 29.6927 17.381 28.9687 18.495C28.3777 19.404 21.0137 30.551 21.0137 30.551L20.1797 31.814ZM20.1807 5.99899C15.7697 5.99899 12.1807 9.58699 12.1807 13.999C12.1807 15.205 12.4977 16.4 13.0987 17.454L20.1817 28.183C22.1257 25.241 26.8267 18.122 27.2937 17.404C27.7347 16.725 28.1817 15.337 28.1817 13.999C28.1807 9.58699 24.5917 5.99899 20.1807 5.99899Z" fill="#3F87F5"/>
</svg>
