<svg width="161" height="36" viewBox="0 0 161 36" fill="none" xmlns="http://www.w3.org/2000/svg">
<path d="M101.948 27.3627H99.4053L99.0191 25.2528C97.6031 27 95.8976 27.8242 93.5484 27.8242C88.4638 27.8242 84.9883 23.8682 84.9883 18.1319C84.9883 12.3627 88.6891 8.30774 93.9345 8.30774C98.0859 8.30774 101.24 10.9121 101.722 14.8352H97.8606C97.4744 12.8572 96.0263 11.7363 93.9023 11.7363C90.8452 11.7363 89.0109 14.1099 89.0109 18.0989C89.0109 22.1539 90.8452 24.5275 94.0311 24.5275C96.5412 24.5275 98.2789 22.8132 98.3755 20.3077H94.2885V17.2748H101.948V27.3627Z" fill="#D20A11"/>
<path d="M113.952 17.044C113.308 16.9121 112.954 16.8792 112.536 16.8792C110.026 16.8792 109.06 18.7253 109.06 21.1649V27.3627H105.424V13.8462H108.867V16.3517C109.672 14.6044 111.184 13.5495 113.147 13.5495C113.437 13.5495 113.598 13.5825 113.952 13.6154V17.044Z" fill="#D20A11"/>
<path d="M128.787 20.6044C128.787 24.9561 126.084 27.7912 121.965 27.7912C117.846 27.7912 115.143 24.9231 115.143 20.6044C115.143 16.3187 117.878 13.4506 122.029 13.4506C126.084 13.4506 128.787 16.3187 128.787 20.6044ZM118.779 20.6044C118.779 23.3736 119.97 24.989 121.965 24.989C123.96 24.989 125.151 23.3736 125.151 20.5714C125.151 17.8681 123.96 16.2857 121.933 16.2857C119.97 16.2857 118.779 17.9011 118.779 20.6044Z" fill="#D20A11"/>
<path d="M144.168 27.3627H140.725V25.4506C139.727 26.9341 138.311 27.7583 136.412 27.7583C133.58 27.7583 131.811 26.1429 131.811 22.9451V13.8462H135.479V21.5934C135.479 23.3077 135.64 24.6594 137.7 24.6594C139.984 24.6594 140.564 22.8792 140.564 20.8352V13.8462H144.168V27.3627Z" fill="#D20A11"/>
<path d="M151.022 15.5275C151.988 14.1429 153.436 13.4835 155.109 13.4835C158.682 13.4835 160.999 16.3517 160.999 20.7033C160.999 24.956 158.714 27.7253 155.27 27.7253C153.597 27.7253 152.181 27.0989 151.216 25.7143V32.1758H147.611V13.8462H151.055V15.5275H151.022ZM151.087 20.6374C151.087 23.2747 152.278 24.7912 154.273 24.7912C156.204 24.7912 157.394 23.2418 157.394 20.6703C157.394 18.033 156.204 16.4506 154.241 16.4506C152.278 16.4506 151.087 18 151.087 20.6374Z" fill="#D20A11"/>
<path d="M38.1973 8.70337H43.8933L48.1411 21.5275L52.2924 8.70337H57.8597V27.3627H54.0946V14.11L49.6536 27.3627H46.5643L42.0268 14.2089V27.3627H38.1973V8.70337Z" fill="#D20A11"/>
<path d="M71.7608 14.2748C71.5999 12.4616 70.4414 11.5055 68.3175 11.5055C66.4832 11.5055 65.389 12.2967 65.389 13.6154C65.389 15.2308 67.3199 15.3627 70.9563 16.4176C74.2066 17.3737 76.2662 18.6264 76.2662 21.7583C76.2662 26.1759 72.4688 27.7913 68.768 27.7913C63.8122 27.7913 60.9159 25.3517 60.8516 21.1319H64.8098C64.8742 23.6374 66.5154 24.6594 68.9289 24.6594C71.0207 24.6594 72.3079 23.7033 72.3079 22.1539C72.3079 20.6704 71.085 20.4066 67.3199 19.3187C64.3593 18.4616 61.4952 17.7033 61.4952 13.8792C61.4952 10.4836 64.2627 8.30774 68.5106 8.30774C72.3401 8.30774 75.4616 10.088 75.526 14.2748H71.7608Z" fill="#D20A11"/>
<path d="M30.3787 8.63736L23.3311 4.25275C22.1404 3.52747 20.9497 2.83517 19.7912 2.10989C18.6005 1.41758 17.4098 0.692308 16.2191 0L14.1595 1.18681L14.1917 4.05495L11.1345 2.83517L9.39679 4.05495L9.46115 6.85714L6.11435 5.83517L4.69839 6.92308L4.76275 9.59341L1.19069 8.83517L0 9.79121L0.482712 27L1.09415 27.4945L5.27765 26.6374L5.37419 29.8681L5.98562 30.3297L10.1369 29.1429L10.2335 32.7033L10.8771 33.1648L14.8997 31.6484C14.9319 32.967 14.9962 34.2857 15.0606 35.6044L15.7686 36L30.1856 27.7912L30.6361 27C30.6683 26.2747 30.7005 25.5495 30.7326 24.8571C30.7648 24.1319 30.797 23.4066 30.8292 22.7143L30.8935 20.5714L30.9579 18.4286L31.0223 14.1099C31.0545 12.6593 31.0544 11.2418 31.0544 9.79121L30.3787 8.63736ZM1.48032 26.3736L1.89867 11.044L4.82712 11.7363L5.21329 25.4506L1.48032 26.3736ZM6.88669 8.47253L9.52551 9.32967L9.55769 10.6813L6.82233 10.0879L6.88669 8.47253ZM6.79014 12.1648L9.65423 12.8242L9.81514 18.3956L9.97604 24.2637L6.43616 25.1538L6.79014 12.1648ZM6.30743 29.1758L6.37179 26.4066L9.97604 25.6813L10.0404 27.9231L6.30743 29.1758ZM11.8747 5.96703L14.2561 6.95604L14.2883 8.30769L11.8425 7.58242L11.8747 5.96703ZM11.7782 10.022L14.3204 10.8462L14.3526 11.7033L11.746 11.1429L11.7782 10.022ZM11.5529 18.3956L11.6816 13.3187L14.3848 13.9451L14.4813 18.3956L14.6101 23.0769L11.392 23.8681L11.5529 18.3956ZM11.3598 25.4176L14.6744 24.7582L14.7066 26.3736L11.2955 27.5275L11.3598 25.4176ZM11.1667 32.011L11.2633 28.8462L14.771 27.8571L14.8675 30.3956L11.1667 32.011ZM16.8305 3.62637C17.3454 3.92308 17.8281 4.25275 18.343 4.54945C19.5337 5.27473 20.6922 6 21.8829 6.69231L24.393 8.17582L19.7912 6.2967L16.8305 5.10989V3.62637ZM16.7662 8.01099L18.7936 8.83517L26.6135 12L16.734 9.06593L16.7662 8.01099ZM16.7018 11.5714L22.9127 13.5495L16.6696 12.1978L16.7018 11.5714ZM16.5731 18.3956L16.6375 14.4725L23.2667 16.022L23.2989 16.7143C23.3632 19.4176 23.3311 17.967 23.3954 20.9011L16.4444 22.6154L16.5731 18.3956ZM16.38 24.3956L24.8436 22.5165L25.1654 22.8462L16.3478 25.8132L16.38 24.3956ZM16.2835 27.3956L26.4204 24.4945L26.9675 25.0549L16.2191 29.8022L16.2835 27.3956ZM16.026 34.7473C16.0904 33.5934 16.1226 32.4725 16.1548 31.3187V31.1868L28.2547 26.6044L16.026 34.7473Z" fill="#004F9F"/>
</svg>
