<svg width="70" height="21" viewBox="0 0 70 21" fill="none" xmlns="http://www.w3.org/2000/svg">
<g clip-path="url(#clip0_3132_192)">
<path fill-rule="evenodd" clip-rule="evenodd" d="M18.8628 0.521973V0.530648C18.8541 0.530648 16.1286 0.521973 15.4017 3.13303C14.7355 5.52723 12.8578 12.1373 12.8059 12.3194H12.2868C12.2868 12.3194 10.3659 5.56192 9.69098 3.12436C8.96415 0.513298 6.22991 0.521973 6.22991 0.521973H0V20.3868H6.22991V8.58936H6.48949H6.74907L10.3832 20.3868H14.7095L18.3436 8.59804H18.8628V20.3868H25.0927V0.521973H18.8628Z" fill="#4DB45E"/>
<path fill-rule="evenodd" clip-rule="evenodd" d="M41.6196 0.521973C41.6196 0.521973 39.7939 0.68679 38.9373 2.60388L34.5245 12.3194H34.0053V0.521973H27.7754V20.3868H33.6592C33.6592 20.3868 35.5714 20.2133 36.428 18.3049L40.7544 8.58936H41.2735V20.3868H47.5035V0.521973H41.6196Z" fill="#4DB45E"/>
<path fill-rule="evenodd" clip-rule="evenodd" d="M50.2715 9.54346V20.3867H56.5014V14.0543H63.2505C66.1924 14.0543 68.6843 12.1719 69.6102 9.54346H50.2715Z" fill="#4DB45E"/>
<path fill-rule="evenodd" clip-rule="evenodd" d="M63.2513 0.521973H49.3984C50.0907 4.3041 52.9201 7.34022 56.5801 8.32912C57.4108 8.55466 58.2847 8.67611 59.1846 8.67611H69.862C69.9572 8.22503 70.0004 7.76527 70.0004 7.28817C70.0004 3.54941 66.9806 0.521973 63.2513 0.521973Z" fill="url(#paint0_linear_3132_192)"/>
</g>
<defs>
<linearGradient id="paint0_linear_3132_192" x1="49.4001" y1="4.59904" x2="70.0004" y2="4.59904" gradientUnits="userSpaceOnUse">
<stop offset="0.3" stop-color="#00B4E6"/>
<stop offset="1" stop-color="#088CCB"/>
</linearGradient>
<clipPath id="clip0_3132_192">
<rect width="70" height="19.8649" fill="white" transform="translate(0 0.521973)"/>
</clipPath>
</defs>
</svg>
