<svg width="70" height="23" viewBox="0 0 70 23" fill="none" xmlns="http://www.w3.org/2000/svg">
<path d="M30.3457 22.0879H24.6338L28.2036 0.83436H33.9161L30.3457 22.0879ZM19.8286 0.83436L14.3832 15.4527L13.7389 12.3048L13.7394 12.3059L11.8175 2.748C11.8175 2.748 11.5851 0.83436 9.10798 0.83436H0.105634L0 1.19423C0 1.19423 2.75293 1.74911 5.97477 3.62352L10.9372 22.0885H16.8885L25.9759 0.83436H19.8286ZM64.7553 22.0879H70L65.4272 0.833792H60.8357C58.7154 0.833792 58.1989 2.41769 58.1989 2.41769L49.6802 22.0879H55.6344L56.8251 18.9309H64.0863L64.7553 22.0879ZM58.4701 14.5698L61.4712 6.6162L63.1596 14.5698H58.4701ZM50.1268 5.94535L50.9419 1.38127C50.9419 1.38127 48.4266 0.45459 45.8046 0.45459C42.9701 0.45459 36.2388 1.65473 36.2388 7.49059C36.2388 12.9813 44.1391 13.0496 44.1391 15.9337C44.1391 18.8178 37.0528 18.301 34.7142 16.4823L33.865 21.2544C33.865 21.2544 36.4155 22.4546 40.3122 22.4546C44.2101 22.4546 50.0904 20.4994 50.0904 15.1781C50.0904 9.6521 42.1191 9.13759 42.1191 6.73502C42.1197 4.33189 47.6825 4.6406 50.1268 5.94535Z" fill="#2566AF"/>
<path d="M13.7394 12.307L11.8175 2.74908C11.8175 2.74908 11.5851 0.835449 9.10798 0.835449H0.105634L0 1.19532C0 1.19532 4.32688 2.06402 8.47711 5.31879C12.4454 8.42973 13.7394 12.307 13.7394 12.307Z" fill="#E6A540"/>
</svg>
