<svg width="61" height="31" viewBox="0 0 61 31" fill="none" xmlns="http://www.w3.org/2000/svg">
<g clip-path="url(#clip0_3132_170)">
<path d="M53.9651 8.87697V16.2115H51.2913V11.0665H48.7168V16.2115H46.043V8.87646H53.9651V8.87697Z" fill="#1C1E20"/>
<path fill-rule="evenodd" clip-rule="evenodd" d="M40.5526 16.4739C42.9462 16.4739 44.7236 15.0364 44.7236 12.8571C44.7236 10.7479 43.4122 9.37836 41.2206 9.37836C40.2091 9.37836 39.3745 9.72711 38.7459 10.3289C38.8959 9.08511 39.9697 8.17711 41.1519 8.17711C41.4247 8.17711 43.4788 8.17286 43.4788 8.17286L44.6404 5.99561C44.6404 5.99561 42.0615 6.05311 40.8627 6.05311C38.1236 6.09986 36.2734 8.53861 36.2734 11.5006C36.2734 14.9514 38.0779 16.4739 40.5526 16.4739ZM40.5672 11.3069C41.4559 11.3069 42.072 11.8789 42.072 12.8569C42.072 13.7371 41.5245 14.4624 40.5672 14.4644C39.6514 14.4644 39.0353 13.7924 39.0353 12.8719C39.0353 11.8936 39.6514 11.3069 40.5672 11.3069Z" fill="#1C1E20"/>
<path d="M34.0958 13.7557C34.0958 13.7557 33.4644 14.1122 32.5213 14.1797C31.4371 14.2112 30.4711 13.5405 30.4711 12.3487C30.4711 11.1862 31.3235 10.52 32.494 10.52C33.2117 10.52 34.1612 11.0072 34.1612 11.0072C34.1612 11.0072 34.8559 9.75847 35.2158 9.13397C34.5568 8.64472 33.6791 8.37646 32.6581 8.37646C30.0816 8.37646 28.0859 10.022 28.0859 12.334C28.0859 14.6755 29.9616 16.2827 32.6581 16.2342C33.4118 16.2067 34.4516 15.9475 35.0854 15.5487L34.0958 13.7557Z" fill="#1C1E20"/>
<path d="M0 6.98389L3.709 13.4776V17.4386L0.00433891 23.9196L0 6.98389Z" fill="#5B57A2"/>
<path d="M14.2422 11.1159L17.7177 9.02945L24.8304 9.02295L14.2422 15.3764V11.1159Z" fill="#D90751"/>
<path d="M14.2215 6.94634L14.2411 15.5438L10.5234 13.3063V0.45459L14.2215 6.94634Z" fill="#FAB718"/>
<path d="M24.8293 9.02234L17.7163 9.02884L14.2215 6.94634L10.5234 0.45459L24.8293 9.02234Z" fill="#ED6F26"/>
<path d="M14.2411 23.9556V19.7844L10.5234 17.5894L10.5255 30.4539L14.2411 23.9556Z" fill="#63B22F"/>
<path d="M17.7079 21.8881L3.70875 13.4776L0 6.98389L24.8142 21.8796L17.7079 21.8881Z" fill="#1487C9"/>
<path d="M10.5254 30.4546L14.2405 23.9564L17.7073 21.8889L24.8137 21.8804L10.5254 30.4546Z" fill="#017F36"/>
<path d="M0.00390625 23.92L10.5533 17.59L7.00666 15.4585L3.70857 17.439L0.00390625 23.92Z" fill="#984995"/>
<path d="M30.472 21.1476C30.3903 21.2496 30.2829 21.3266 30.154 21.3786C30.0217 21.4313 29.8802 21.4581 29.7375 21.4576C29.5954 21.4594 29.4543 21.4362 29.3207 21.3891C29.2007 21.3464 29.091 21.2798 28.9986 21.1936C28.9073 21.1072 28.8356 21.0029 28.7883 20.8876C28.737 20.7612 28.7114 20.6263 28.713 20.4903C28.713 20.3553 28.7367 20.2303 28.786 20.1118C28.8332 19.9931 28.9018 19.8913 28.9878 19.8058C29.0739 19.7186 29.177 19.6521 29.2928 19.6001C29.411 19.5501 29.5399 19.5231 29.6816 19.5231C29.8342 19.5231 29.9758 19.5418 30.1047 19.5791C30.2336 19.6166 30.3431 19.6791 30.4332 19.7666L30.2765 20.0266C30.2007 19.9593 30.1114 19.9082 30.0144 19.8766C29.9221 19.8474 29.8257 19.8328 29.7288 19.8331C29.643 19.8331 29.5613 19.8496 29.482 19.8808C29.4037 19.9117 29.3323 19.9569 29.2714 20.0141C29.2092 20.0728 29.1602 20.1437 29.1275 20.2221C29.091 20.3031 29.0739 20.3926 29.0739 20.4923C29.0739 20.5943 29.093 20.6858 29.1295 20.7648C29.1662 20.8461 29.2155 20.9148 29.2778 20.9728C29.3401 21.0313 29.4131 21.0748 29.4968 21.1041C29.5807 21.1353 29.6688 21.1498 29.7632 21.1498C29.8791 21.1498 29.9845 21.1268 30.0746 21.0831C30.1639 21.0408 30.2441 20.9823 30.311 20.9106L30.472 21.1476ZM30.9143 21.4138V19.5626H31.2538V20.9418L32.3576 19.5626H32.6971V21.4141H32.3576V20.0348L31.2538 21.4141H30.9143V21.4138ZM34.9457 21.1476C34.8622 21.2504 34.7526 21.3301 34.6279 21.3786C34.4956 21.4313 34.354 21.4581 34.2111 21.4576C34.0692 21.4594 33.9281 21.4362 33.7946 21.3891C33.6745 21.3464 33.5648 21.2798 33.4722 21.1936C33.381 21.1072 33.3093 21.0029 33.2619 20.8876C33.2106 20.7612 33.1851 20.6263 33.1866 20.4903C33.1866 20.3553 33.2104 20.2303 33.2596 20.1118C33.3071 19.9931 33.3758 19.8913 33.4615 19.8058C33.5475 19.7186 33.6506 19.6521 33.7665 19.6001C33.8889 19.5473 34.0215 19.521 34.1552 19.5231C34.3079 19.5231 34.4495 19.5418 34.5784 19.5791C34.7073 19.6166 34.8168 19.6791 34.9071 19.7666L34.7502 20.0266C34.6745 19.9592 34.5853 19.9081 34.4883 19.8766C34.396 19.8475 34.2996 19.8328 34.2027 19.8331C34.0321 19.8336 33.8682 19.8984 33.7451 20.0141C33.6834 20.0733 33.6345 20.144 33.6011 20.2221C33.5646 20.3031 33.5475 20.3926 33.5475 20.4923C33.5475 20.5943 33.5669 20.6858 33.6034 20.7648C33.6399 20.8461 33.6892 20.9148 33.7515 20.9728C33.8137 21.0313 33.887 21.0748 33.9707 21.1041C34.0544 21.1331 34.1425 21.1498 34.2369 21.1498C34.353 21.1498 34.4561 21.1268 34.5483 21.0831C34.6376 21.0408 34.7178 20.9823 34.7846 20.9106L34.9457 21.1476ZM35.1197 19.5626H36.8614V19.8913H36.1613V21.4138H35.8219V19.8913H35.1218V19.5626H35.1197Z" fill="#1C1E20"/>
<path fill-rule="evenodd" clip-rule="evenodd" d="M38.448 21.3953C38.5769 21.3558 38.6864 21.2953 38.7808 21.2123L38.6777 20.9543C38.6154 21.0085 38.5317 21.0543 38.4309 21.0918C38.3298 21.1293 38.216 21.1478 38.0914 21.1478C37.9046 21.1478 37.7499 21.1 37.6274 21.0023C37.5052 20.9043 37.4386 20.7673 37.4235 20.5923H38.8926C38.9077 20.5278 38.914 20.455 38.914 20.3698C38.914 20.2428 38.8903 20.1285 38.8431 20.0245C38.7991 19.9235 38.7349 19.8322 38.6542 19.756C38.5724 19.6805 38.476 19.6219 38.3707 19.5835C38.2604 19.5416 38.1431 19.5204 38.0248 19.521C37.8658 19.521 37.7262 19.548 37.6039 19.598C37.4884 19.6456 37.3838 19.7157 37.2966 19.804C37.212 19.8918 37.147 19.996 37.1057 20.1098C37.0604 20.2309 37.0378 20.3592 37.0391 20.4883C37.0391 20.634 37.0649 20.767 37.1121 20.8858C37.1581 21.0008 37.2283 21.105 37.3183 21.1915C37.4064 21.2765 37.5136 21.3413 37.6404 21.387C37.7763 21.4342 37.9195 21.4574 38.0636 21.4555C38.1941 21.4547 38.3237 21.4342 38.448 21.3953ZM37.5889 19.9703C37.694 19.8768 37.8337 19.831 38.0098 19.831C38.1751 19.831 38.3084 19.8748 38.4051 19.9623C38.5018 20.0495 38.5531 20.1703 38.5618 20.324H37.4021C37.4185 20.1879 37.4849 20.062 37.5889 19.9703Z" fill="#1C1E20"/>
<path d="M39.375 19.564H39.6843L40.4189 20.4815L41.1147 19.564H41.4153V21.4155H41.0761V20.0655L40.4146 20.9245H40.4015L39.7145 20.0652V21.4152H39.375V19.564Z" fill="#1C1E20"/>
<path fill-rule="evenodd" clip-rule="evenodd" d="M42.3387 19.5692C42.2357 19.5956 42.1373 19.6368 42.0468 19.6917L42.1369 19.9542C42.2142 19.9167 42.2915 19.8854 42.3689 19.8584C42.4462 19.8312 42.545 19.8187 42.6631 19.8187C42.7576 19.8187 42.8329 19.8334 42.8908 19.8624C42.9488 19.8894 42.9916 19.9312 43.0217 19.9812C43.0519 20.0312 43.0713 20.0934 43.082 20.1662C43.0927 20.2389 43.097 20.3179 43.097 20.4034C43.0276 20.356 42.9484 20.324 42.865 20.3097C42.7844 20.294 42.7025 20.2856 42.6203 20.2847C42.5192 20.2847 42.4248 20.2994 42.3344 20.3242C42.2443 20.3492 42.167 20.3867 42.1047 20.4367C42.0411 20.4866 41.9898 20.5498 41.9544 20.6217C41.9165 20.7004 41.8974 20.7865 41.8985 20.8734C41.8985 21.0544 41.9523 21.1959 42.0595 21.2959C42.167 21.3957 42.3086 21.4454 42.4847 21.4454C42.6437 21.4454 42.7706 21.4184 42.8671 21.3644C42.9638 21.3102 43.0411 21.2479 43.097 21.1772V21.4164H43.4148V20.2807C43.4148 20.0392 43.3612 19.8522 43.2517 19.7209C43.1443 19.5899 42.9531 19.5234 42.6825 19.5234C42.5621 19.5234 42.4482 19.5399 42.3387 19.5692ZM42.9061 21.0692C42.8288 21.1232 42.7277 21.1479 42.6032 21.1479C42.4937 21.1479 42.4077 21.1209 42.3477 21.0689C42.2874 21.0149 42.2573 20.9442 42.2573 20.8567C42.2573 20.8049 42.2681 20.7612 42.2918 20.7217C42.3155 20.6822 42.3477 20.6509 42.3842 20.6259C42.4241 20.5998 42.4684 20.5808 42.5151 20.5697C42.5646 20.5572 42.6139 20.5509 42.6654 20.5509C42.8331 20.5509 42.9768 20.5904 43.095 20.6737V20.9087C43.0393 20.9698 42.9758 21.0239 42.9061 21.0692ZM46.4112 18.9117C46.4799 18.8807 46.5442 18.8287 46.6044 18.7517L46.4196 18.4917C46.3724 18.5542 46.3188 18.5977 46.2586 18.6207C46.1947 18.6451 46.1286 18.6632 46.061 18.6747L45.9967 18.6859C45.9408 18.6954 45.8808 18.7059 45.8163 18.7164C45.7127 18.7352 45.6118 18.7659 45.5156 18.8079C45.363 18.8724 45.2407 18.9597 45.1483 19.0699C45.0559 19.1802 44.9829 19.3049 44.9334 19.4424C44.8833 19.5817 44.8494 19.7262 44.8326 19.8729C44.8152 20.0229 44.8068 20.1662 44.8068 20.3034C44.8068 20.4804 44.8303 20.6404 44.8775 20.7839C44.925 20.9277 44.9914 21.0482 45.0794 21.1459C45.1675 21.2459 45.2729 21.3209 45.3974 21.3749C45.522 21.4289 45.6616 21.4559 45.8183 21.4559C45.9623 21.4559 46.0955 21.4289 46.2157 21.3789C46.3316 21.3309 46.4367 21.261 46.525 21.1732C46.6108 21.0877 46.6797 20.9857 46.7269 20.8714C46.7762 20.7569 46.7999 20.6342 46.7999 20.5052C46.7999 20.3659 46.7785 20.2392 46.7376 20.1267C46.7 20.0194 46.6401 19.921 46.5615 19.8377C46.4828 19.7558 46.3867 19.6917 46.28 19.6502C46.1625 19.6048 46.037 19.5823 45.9107 19.5837C45.829 19.5837 45.7496 19.5942 45.6723 19.6149C45.5971 19.6357 45.5249 19.6658 45.4574 19.7044C45.3919 19.7412 45.332 19.7866 45.2793 19.8394C45.2277 19.8917 45.1848 19.9499 45.1547 20.0164H45.146C45.1527 19.9312 45.1634 19.8439 45.1825 19.7544C45.2019 19.6649 45.2297 19.5794 45.2665 19.4984C45.303 19.4174 45.3502 19.3444 45.4081 19.2779C45.4703 19.2108 45.5464 19.1576 45.6315 19.1219C45.725 19.0783 45.8239 19.0469 45.9258 19.0284L45.9931 19.0164C46.0603 19.0044 46.1243 18.9929 46.1856 18.9804C46.2673 18.9639 46.3423 18.9427 46.4112 18.9117ZM45.217 20.6904C45.1838 20.5854 45.1678 20.4759 45.1698 20.3659C45.1842 20.3029 45.2104 20.2429 45.2471 20.1892C45.2836 20.1329 45.3308 20.0832 45.3867 20.0392C45.5128 19.9424 45.6688 19.8904 45.829 19.8917C46.0289 19.8917 46.1792 19.9519 46.2844 20.0707C46.3898 20.1912 46.4413 20.3409 46.4413 20.5219C46.4413 20.6114 46.424 20.6927 46.3941 20.7674C46.3651 20.8412 46.3212 20.9085 46.2651 20.9653C46.2091 21.0221 46.1419 21.0673 46.0677 21.0982C45.9903 21.1314 45.9064 21.1482 45.8119 21.1482C45.7175 21.1482 45.6315 21.1294 45.5521 21.0919C45.4732 21.0552 45.4035 21.002 45.3479 20.9359C45.2897 20.8624 45.2454 20.7793 45.217 20.6904ZM49.403 19.5629H49.0636V21.4144H49.403V19.5629ZM47.2894 19.5629H47.6289V20.1184H47.9426C48.0906 20.1184 48.2108 20.1372 48.3076 20.1724C48.4043 20.2079 48.4816 20.2557 48.5396 20.3139C48.5975 20.3722 48.6383 20.4409 48.6621 20.5177C48.6856 20.5947 48.6986 20.6737 48.6986 20.7569C48.6986 20.8402 48.6856 20.9194 48.6577 20.9984C48.632 21.0774 48.5868 21.1459 48.5265 21.2084C48.4666 21.2709 48.3849 21.3209 48.2818 21.3584C48.1787 21.3957 48.0541 21.4164 47.9038 21.4164H47.2874V19.5629H47.2894ZM47.6289 20.4282V21.1064H47.876C48.0457 21.1064 48.1659 21.0774 48.2346 21.0189C48.3035 20.9607 48.3377 20.8777 48.3377 20.7674C48.3377 20.6549 48.3012 20.5699 48.2325 20.5114C48.1616 20.4532 48.0434 20.4239 47.8803 20.4239H47.6289V20.4282Z" fill="#1C1E20"/>
<path d="M51.6478 21.1476C51.5661 21.2496 51.4587 21.3266 51.3298 21.3786C51.1975 21.4313 51.056 21.4581 50.9132 21.4576C50.7712 21.4594 50.63 21.4362 50.4964 21.3891C50.3764 21.3464 50.2667 21.2799 50.1743 21.1936C50.0831 21.1071 50.0113 21.0029 49.9638 20.8876C49.9127 20.7612 49.8872 20.6262 49.8887 20.4903C49.8887 20.3553 49.9122 20.2303 49.9617 20.1118C50.009 19.9931 50.0776 19.8913 50.1636 19.8058C50.2496 19.7186 50.3525 19.6521 50.4686 19.6001C50.591 19.5472 50.7236 19.521 50.8573 19.5231C51.0097 19.5231 51.1516 19.5418 51.2805 19.5791C51.4094 19.6166 51.5189 19.6791 51.609 19.7666L51.4523 20.0266C51.3765 19.9593 51.2872 19.9082 51.1902 19.8766C51.0979 19.8474 51.0015 19.8328 50.9046 19.8331C50.8188 19.8331 50.7371 19.8496 50.6575 19.8808C50.5794 19.9117 50.508 19.9569 50.4472 20.0141C50.3854 20.0732 50.3365 20.144 50.3032 20.2221C50.2667 20.3031 50.2496 20.3926 50.2496 20.4923C50.2496 20.5943 50.2688 20.6858 50.3053 20.7648C50.3418 20.8461 50.3913 20.9148 50.4536 20.9728C50.5158 21.0313 50.5888 21.0748 50.6725 21.1041C50.7565 21.1331 50.8446 21.1498 50.939 21.1498C51.0549 21.1498 51.158 21.1268 51.2504 21.0831C51.3397 21.0408 51.4199 20.9823 51.4867 20.9106L51.6478 21.1476ZM51.8216 19.5626H53.5635V19.8913H52.8632V21.4138H52.524V19.8913H51.8239V19.5626H51.8216Z" fill="#1C1E20"/>
<path fill-rule="evenodd" clip-rule="evenodd" d="M54.2731 19.5629H53.9336V22.2379H54.2731V21.3289C54.3417 21.3726 54.4234 21.4039 54.5178 21.4246C54.6123 21.4454 54.711 21.4556 54.8121 21.4556C54.9624 21.4556 55.0977 21.4286 55.2202 21.3789C55.3377 21.3296 55.4442 21.2583 55.5336 21.1689C55.6217 21.0791 55.6883 20.9751 55.7355 20.8524C55.7827 20.7299 55.8065 20.5986 55.8065 20.4594C55.8065 20.3219 55.785 20.1951 55.7442 20.0806C55.7057 19.9719 55.6459 19.8716 55.5681 19.7854C55.4917 19.7013 55.397 19.6352 55.2909 19.5919C55.175 19.5431 55.0498 19.519 54.9236 19.5211C54.7907 19.5211 54.6661 19.5461 54.5479 19.5961C54.4298 19.6461 54.3374 19.7061 54.2731 19.7811V19.5629ZM54.5094 19.9061C54.6061 19.8561 54.7113 19.8311 54.8251 19.8311C54.9239 19.8311 55.0119 19.8456 55.0916 19.8769C55.1689 19.9081 55.2332 19.9519 55.2871 20.0101C55.3407 20.0684 55.3815 20.1351 55.4073 20.2139C55.4351 20.2929 55.4481 20.3784 55.4481 20.4719C55.4481 20.5719 55.4308 20.6611 55.4009 20.7444C55.3728 20.8233 55.3281 20.8956 55.2697 20.9566C55.2111 21.0169 55.1401 21.0644 55.0615 21.0959C54.9737 21.1319 54.8794 21.1496 54.7843 21.1479C54.6921 21.1479 54.6061 21.1376 54.5245 21.1169C54.435 21.0931 54.3502 21.055 54.2733 21.0044V20.0869C54.3333 20.0164 54.4129 19.9561 54.5094 19.9061ZM58.4096 19.5626H58.0701V21.4141H58.4096V19.5626ZM56.294 19.5626H56.6334V20.1181H56.9468C57.0951 20.1181 57.2153 20.1369 57.3121 20.1721C57.4088 20.2076 57.4861 20.2554 57.5441 20.3136C57.602 20.3719 57.6429 20.4406 57.6663 20.5174C57.6901 20.5944 57.7028 20.6734 57.7028 20.7566C57.7028 20.8399 57.6901 20.9191 57.6623 20.9981C57.6365 21.0771 57.5913 21.1456 57.5311 21.2081C57.4711 21.2706 57.3894 21.3206 57.2863 21.3581C57.1832 21.3954 57.0586 21.4161 56.9083 21.4161H56.2919V19.5626H56.294ZM56.6357 20.4279V21.1061H56.8828C57.0523 21.1061 57.1727 21.0771 57.2414 21.0186C57.31 20.9604 57.3445 20.8774 57.3445 20.7671C57.3445 20.6546 57.308 20.5696 57.2393 20.5111C57.1684 20.4529 57.0502 20.4236 56.8871 20.4236H56.6357V20.4279Z" fill="#1C1E20"/>
<path d="M60.0361 20.4565L60.762 21.4155H60.3454L59.7847 20.6665L59.2155 21.4155H58.8204L59.542 20.473L58.8633 19.564H59.2801L59.7977 20.263L60.3238 19.564H60.7191L60.0361 20.4565ZM30.2209 23.7037H29.1793V25.2472H28.8398V23.396H30.5601V25.2472H30.2209V23.7037ZM32.4866 23.7245H31.8166L31.7949 24.0365C31.7714 24.3007 31.7393 24.513 31.6941 24.675C31.6489 24.8375 31.593 24.9622 31.5287 25.0495C31.4644 25.137 31.3891 25.1972 31.3031 25.2265C31.2143 25.258 31.1205 25.2735 31.0261 25.2722L31.0004 24.9517C31.0369 24.9537 31.0797 24.9455 31.127 24.9247C31.1744 24.904 31.2216 24.8582 31.2666 24.7897C31.3117 24.7187 31.3526 24.619 31.3891 24.49C31.4256 24.359 31.4493 24.1885 31.4621 23.974L31.4965 23.3977H32.826V25.2492H32.4866V23.7242V23.7245Z" fill="#1C1E20"/>
<path fill-rule="evenodd" clip-rule="evenodd" d="M33.7411 23.3988C33.6314 23.4278 33.5326 23.4693 33.4489 23.5213L33.5392 23.7835C33.6165 23.746 33.6939 23.7148 33.771 23.6878C33.8483 23.6608 33.9473 23.6483 34.0652 23.6483C34.1599 23.6483 34.235 23.6628 34.2929 23.6918C34.3511 23.719 34.394 23.7605 34.4241 23.8105C34.454 23.8605 34.4734 23.923 34.4841 23.9955C34.4948 24.0685 34.4991 24.1475 34.4991 24.2328C34.4297 24.1854 34.3505 24.1535 34.2671 24.1393C34.1865 24.1236 34.1046 24.1152 34.0224 24.1143C33.9215 24.1143 33.8269 24.1288 33.7368 24.1538C33.6464 24.1788 33.5691 24.2163 33.5068 24.2663C33.4432 24.3162 33.3919 24.3794 33.3565 24.4513C33.3187 24.53 33.2997 24.6161 33.3008 24.703C33.3008 24.8838 33.3544 25.0255 33.4619 25.1253C33.5691 25.225 33.711 25.275 33.8871 25.275C34.0461 25.275 34.1727 25.248 34.2694 25.1938C34.3659 25.1398 34.4432 25.0773 34.4991 25.0065V25.2458H34.8172V24.11C34.8172 23.8688 34.7633 23.6815 34.6538 23.5505C34.5464 23.4193 34.3552 23.353 34.0846 23.353C33.9686 23.3531 33.853 23.3687 33.7411 23.3988ZM34.3103 24.8983C34.2332 24.9525 34.1321 24.9775 34.0076 24.9775C33.8958 24.9775 33.8121 24.9505 33.7521 24.8983C33.6918 24.8443 33.6617 24.7735 33.6617 24.6863C33.6617 24.6343 33.6724 24.5905 33.6962 24.551C33.7197 24.5115 33.7521 24.4803 33.7886 24.4553C33.8251 24.4303 33.87 24.4115 33.9195 24.399C33.9686 24.3866 34.0191 24.3804 34.0698 24.3805C34.2373 24.3805 34.3812 24.42 34.4994 24.503V24.738C34.4436 24.7992 34.3801 24.853 34.3103 24.8983Z" fill="#1C1E20"/>
<path d="M35.1504 23.396H36.8923V23.7245H36.192V25.2472H35.8528V23.7247H35.1527V23.396H35.1504Z" fill="#1C1E20"/>
<path fill-rule="evenodd" clip-rule="evenodd" d="M38.4775 25.2277C38.6064 25.1882 38.7159 25.1277 38.8103 25.0447L38.7072 24.7867C38.645 24.841 38.5612 24.8867 38.4602 24.9242C38.3594 24.9617 38.2455 24.9802 38.121 24.9802C37.9341 24.9802 37.7795 24.9325 37.657 24.8347C37.5345 24.737 37.4681 24.5997 37.453 24.4247H38.9221C38.9369 24.3605 38.9436 24.2875 38.9436 24.2022C38.9436 24.0755 38.9198 23.961 38.8726 23.857C38.8286 23.756 38.7643 23.6648 38.6835 23.5887C38.6019 23.5131 38.5055 23.4544 38.4002 23.416C38.2899 23.3741 38.1726 23.3529 38.0544 23.3535C37.8954 23.3535 37.7557 23.3805 37.6335 23.4305C37.5178 23.478 37.4133 23.5481 37.3262 23.6365C37.2416 23.7244 37.1765 23.8285 37.135 23.9422C37.0898 24.0634 37.0672 24.1917 37.0684 24.3207C37.0684 24.4665 37.0942 24.5995 37.1414 24.7182C37.1889 24.8367 37.2596 24.9387 37.3476 25.024C37.4357 25.1092 37.5431 25.1737 37.67 25.2195C37.8057 25.2667 37.9489 25.29 38.0929 25.2882C38.2197 25.2882 38.3486 25.2672 38.4775 25.2277ZM37.6164 23.8007C37.7215 23.7072 37.8612 23.6615 38.0373 23.6615C38.2049 23.6615 38.3359 23.7072 38.4326 23.7925C38.5291 23.88 38.5806 24.0005 38.5893 24.1545H37.4296C37.4459 24.0183 37.5123 23.8925 37.6164 23.8007ZM39.109 23.3952H39.5385L40.1934 24.2877L39.4933 25.2465H39.0768L39.8111 24.2875L39.109 23.3952ZM40.2772 23.3952H40.6166V25.2465H40.2772V23.3952ZM41.83 25.2465L41.0827 24.2875L41.7807 23.395H41.3596L40.7003 24.2875L41.4091 25.2465H41.83ZM43.3808 25.2277C43.5096 25.1882 43.6191 25.1277 43.7136 25.0447L43.6105 24.7867C43.5482 24.841 43.4645 24.8867 43.3637 24.9242C43.2626 24.9617 43.1488 24.9802 43.0242 24.9802C42.8374 24.9802 42.6827 24.9325 42.5602 24.8347C42.4379 24.737 42.3713 24.5997 42.3563 24.4247H43.8254C43.8404 24.3605 43.8468 24.2875 43.8468 24.2022C43.8468 24.0755 43.8233 23.961 43.7759 23.857C43.7319 23.7561 43.6676 23.6649 43.587 23.5887C43.5052 23.5131 43.4088 23.4544 43.3034 23.416C43.1932 23.3741 43.0758 23.3529 42.9576 23.3535C42.7988 23.3535 42.6592 23.3805 42.5367 23.4305C42.4212 23.4781 42.3167 23.5481 42.2297 23.6365C42.1449 23.7242 42.0798 23.8284 42.0385 23.9422C41.9931 24.0634 41.9706 24.1917 41.9719 24.3207C41.9719 24.4665 41.9977 24.5995 42.0449 24.7182C42.0921 24.8367 42.1631 24.9387 42.2511 25.024C42.3392 25.1092 42.4464 25.1737 42.5732 25.2195C42.709 25.2667 42.8523 25.29 42.9964 25.2882C43.1269 25.2873 43.2565 25.2669 43.3808 25.2277ZM42.5196 23.8007C42.625 23.7072 42.7646 23.6615 42.9407 23.6615C43.1061 23.6615 43.2391 23.7072 43.3358 23.7925C43.4326 23.88 43.4841 24.0005 43.4925 24.1545H42.3328C42.3492 24.0183 42.4156 23.8925 42.5196 23.8007ZM45.2238 22.7732C45.0239 22.7732 44.9144 22.665 44.8973 22.4487H44.5773C44.5773 22.5317 44.5923 22.6067 44.6202 22.6775C44.6482 22.7482 44.6891 22.8085 44.7427 22.8585C44.7963 22.9085 44.8652 22.948 44.9445 22.979C45.0239 23.0102 45.1163 23.0247 45.2215 23.0247C45.3182 23.0247 45.4042 23.0102 45.4816 22.979C45.5589 22.95 45.6232 22.9085 45.6791 22.8585C45.7327 22.8085 45.7758 22.7482 45.8057 22.6775C45.8358 22.6067 45.8509 22.5317 45.8509 22.4487H45.5331C45.5181 22.665 45.4126 22.7732 45.2238 22.7732ZM44.3065 23.395V25.2465H44.6459L45.7498 23.8672V25.2465H46.0893V23.395H45.7498L44.6459 24.7742V23.395H44.3065Z" fill="#1C1E20"/>
</g>
<defs>
<clipPath id="clip0_3132_170">
<rect width="61" height="30" fill="white" transform="translate(0 0.45459)"/>
</clipPath>
</defs>
</svg>
