<svg width="40" height="31" viewBox="0 0 40 31" fill="none" xmlns="http://www.w3.org/2000/svg">
<g clip-path="url(#clip0_3132_201)">
<path d="M7.24839 30.8423V28.791C7.24839 28.0063 6.76801 27.4925 5.94335 27.4925C5.53102 27.4925 5.08266 27.6279 4.77441 28.074C4.53422 27.6996 4.18995 27.4925 3.67353 27.4925C3.32926 27.4925 2.98498 27.5961 2.71276 27.9705V27.5602H1.99219V30.8423H2.71276V29.03C2.71276 28.4485 3.02101 28.1736 3.50139 28.1736C3.98178 28.1736 4.22197 28.4803 4.22197 29.03V30.8423H4.94255V29.03C4.94255 28.4485 5.28682 28.1736 5.73118 28.1736C6.21156 28.1736 6.45176 28.4803 6.45176 29.03V30.8423H7.24839ZM17.9369 27.5602H16.768V26.5684H16.0474V27.5602H15.3949V28.2095H16.0474V29.7151C16.0474 30.4679 16.3557 30.91 17.1803 30.91C17.4886 30.91 17.8329 30.8065 18.0731 30.671L17.8649 30.0537C17.6567 30.1891 17.4165 30.2249 17.2444 30.2249C16.9001 30.2249 16.764 30.0178 16.764 29.6792V28.2095H17.9329V27.5602H17.9369ZM24.0538 27.4885C23.6415 27.4885 23.3653 27.6956 23.1931 27.9665V27.5562H22.4726V30.8383H23.1931V28.9902C23.1931 28.4445 23.4333 28.1338 23.8817 28.1338C24.0178 28.1338 24.1899 28.1696 24.3301 28.2015L24.5382 27.5164C24.3941 27.4885 24.1899 27.4885 24.0538 27.4885ZM14.8104 27.8311C14.4662 27.5921 13.9858 27.4885 13.4694 27.4885C12.6447 27.4885 12.0963 27.8988 12.0963 28.548C12.0963 29.0937 12.5086 29.4044 13.2292 29.504L13.5735 29.5398C13.9498 29.6075 14.1579 29.7111 14.1579 29.8824C14.1579 30.1214 13.8817 30.2926 13.4013 30.2926C12.9209 30.2926 12.5406 30.1214 12.3004 29.9501L11.9562 30.4958C12.3325 30.7706 12.8489 30.9061 13.3653 30.9061C14.3261 30.9061 14.8785 30.4599 14.8785 29.8465C14.8785 29.265 14.4301 28.9583 13.7456 28.8547L13.4013 28.8189C13.0931 28.783 12.8529 28.7153 12.8529 28.5122C12.8529 28.2732 13.0931 28.1378 13.4734 28.1378C13.8857 28.1378 14.298 28.309 14.5062 28.4126L14.8104 27.8311ZM33.9818 27.4885C33.5695 27.4885 33.2932 27.6956 33.1211 27.9665V27.5562H32.4005V30.8383H33.1211V28.9902C33.1211 28.4445 33.3613 28.1338 33.8096 28.1338C33.9457 28.1338 34.1179 28.1696 34.258 28.2015L34.4662 27.5244C34.3261 27.4885 34.1219 27.4885 33.9818 27.4885ZM24.7744 29.2013C24.7744 30.1931 25.463 30.91 26.5278 30.91C27.0082 30.91 27.3525 30.8065 27.6968 30.5356L27.3525 29.9541C27.0763 30.1612 26.804 30.2608 26.4918 30.2608C25.9073 30.2608 25.495 29.8505 25.495 29.2013C25.495 28.5839 25.9073 28.1736 26.4918 28.1418C26.8 28.1418 27.0763 28.2453 27.3525 28.4485L27.6968 27.8669C27.3525 27.5921 27.0082 27.4925 26.5278 27.4925C25.463 27.4885 24.7744 28.2095 24.7744 29.2013ZM31.4397 29.2013V27.5602H30.7192V27.9705C30.479 27.6638 30.1347 27.4925 29.6863 27.4925C28.7576 27.4925 28.037 28.2095 28.037 29.2013C28.037 30.1931 28.7576 30.91 29.6863 30.91C30.1667 30.91 30.511 30.7388 30.7192 30.4321V30.8423H31.4397V29.2013ZM28.7936 29.2013C28.7936 28.6197 29.1699 28.1418 29.7904 28.1418C30.3749 28.1418 30.7872 28.5879 30.7872 29.2013C30.7872 29.7828 30.3749 30.2608 29.7904 30.2608C29.1739 30.2249 28.7936 29.7788 28.7936 29.2013ZM20.1707 27.4885C19.21 27.4885 18.5214 28.1736 18.5214 29.1973C18.5214 30.2249 19.21 30.9061 20.2068 30.9061C20.6871 30.9061 21.1675 30.7706 21.5478 30.4599L21.2036 29.9461C20.9273 30.1532 20.5831 30.2887 20.2428 30.2887C19.7944 30.2887 19.3501 30.0815 19.246 29.504H21.6839C21.6839 29.4004 21.6839 29.3327 21.6839 29.2292C21.716 28.1736 21.0955 27.4885 20.1707 27.4885ZM20.1707 28.1059C20.6191 28.1059 20.9273 28.3807 20.9954 28.8906H19.278C19.3461 28.4485 19.6543 28.1059 20.1707 28.1059ZM38.0731 29.2013V26.2617H37.3525V27.9705C37.1123 27.6638 36.768 27.4925 36.3196 27.4925C35.3909 27.4925 34.6703 28.2095 34.6703 29.2013C34.6703 30.1931 35.3909 30.91 36.3196 30.91C36.8 30.91 37.1443 30.7388 37.3525 30.4321V30.8423H38.0731V29.2013ZM35.4269 29.2013C35.4269 28.6197 35.8032 28.1418 36.4237 28.1418C37.0082 28.1418 37.4205 28.5879 37.4205 29.2013C37.4205 29.7828 37.0082 30.2608 36.4237 30.2608C35.8032 30.2249 35.4269 29.7788 35.4269 29.2013ZM11.3036 29.2013V27.5602H10.5831V27.9705C10.3429 27.6638 9.99859 27.4925 9.55023 27.4925C8.62149 27.4925 7.90091 28.2095 7.90091 29.2013C7.90091 30.1931 8.62149 30.91 9.55023 30.91C10.0306 30.91 10.3749 30.7388 10.5831 30.4321V30.8423H11.3036V29.2013ZM8.62549 29.2013C8.62549 28.6197 9.00179 28.1418 9.62229 28.1418C10.2068 28.1418 10.6191 28.5879 10.6191 29.2013C10.6191 29.7828 10.2068 30.2608 9.62229 30.2608C9.00179 30.2249 8.62549 29.7788 8.62549 29.2013Z" fill="#1C1E20"/>
<path d="M25.395 2.63281H14.5703V21.9829H25.395V2.63281Z" fill="#FF5A00"/>
<path d="M15.2922 12.3079C15.2922 8.37652 17.1497 4.8873 20 2.63285C17.9023 0.991799 15.2562 0 12.3699 0C5.53243 0 0 5.50469 0 12.3079C0 19.1111 5.53243 24.6157 12.3699 24.6157C15.2562 24.6157 17.9023 23.6239 20 21.9829C17.1457 19.7603 15.2922 16.2392 15.2922 12.3079Z" fill="#EB001B"/>
<path d="M40 12.3079C40 19.1111 34.4676 24.6157 27.6301 24.6157C24.7438 24.6157 22.0977 23.6239 20 21.9829C22.8863 19.7245 24.7078 16.2392 24.7078 12.3079C24.7078 8.37652 22.8503 4.8873 20 2.63285C22.0937 0.991799 24.7398 0 27.6261 0C34.4676 0 40 5.54053 40 12.3079Z" fill="#F79E1B"/>
</g>
<defs>
<clipPath id="clip0_3132_201">
<rect width="40" height="30.9091" fill="white"/>
</clipPath>
</defs>
</svg>
